<?xml version="1.0" encoding="UTF-8" standalone="no"?>
<!DOCTYPE svg PUBLIC "-//W3C//DTD SVG 1.1//EN" "http://www.w3.org/Graphics/SVG/1.1/DTD/svg11.dtd">
<svg width="100%" height="100%" viewBox="0 0 2481 839" version="1.1" xmlns="http://www.w3.org/2000/svg" xmlns:xlink="http://www.w3.org/1999/xlink" xml:space="preserve" xmlns:serif="http://www.serif.com/" style="fill-rule:evenodd;clip-rule:evenodd;stroke-linejoin:round;stroke-miterlimit:2;">
    <g transform="matrix(1,0,0,1,-1398.35776,-1236.543313)">
        <g id="Logo-Color" serif:id="Logo Color" transform="matrix(1,0,0,0.2391,-1318.177673,1236.543313)">
            <rect x="2716.535" y="0" width="2480.315" height="3507.874" style="fill:none;"/>
            <g transform="matrix(1.648923,0,0,6.896379,719.790348,-3739.24828)">
                <g transform="matrix(1,0,0,1,576.72624,-1049.743429)">
                    <g transform="matrix(1.782227,0,0,1.782227,429.034021,1256.317291)">
                        <path d="M339.697,327.487C339.573,327.977 340.014,327.917 339.891,328.4C339.869,328.486 339.876,328.46 339.237,329.296C339.11,329.462 338.958,329.607 338.838,329.778C337.895,331.12 338.652,331.273 340.192,331.872C347.193,335.778 344.58,338.201 346.039,343.646C346.115,343.928 346.84,346.631 345.361,347.233C343.62,347.941 343.648,344.734 343.191,342.607C342.519,339.475 343.611,336.364 338.36,333.794C334.189,331.752 333.773,345.136 309.014,373.061C305.015,377.571 290.474,392.088 272.397,398.188C259.014,402.704 246.723,402.639 240.468,400.598C211.771,391.235 223.987,363.14 239.773,350.853C261.718,333.772 291.251,329.528 296.507,328.537C314.086,325.222 326.527,327.236 328.565,326.688C331.038,326.022 339.462,304.983 341.811,300.634C344.32,295.989 356.126,267.161 367.715,251.655C376.687,239.65 377.495,240.399 379.024,239.065C382.287,236.219 376.697,238.226 376.499,238.298C369.63,240.764 351.83,243.993 339.464,247.351C292.597,260.078 286.177,284.624 287.07,295.542C288.256,310.042 300.637,312.502 303.481,312.709C316.514,313.657 324.507,308.67 332.429,302.404C338.136,297.89 339.576,294.022 341.387,294.811C341.904,295.037 342.847,295.853 337.84,300.901C324.187,314.666 312.414,315.256 308.5,315.498C280.313,317.24 274.33,282.411 303.109,261.027C323.115,246.161 339.844,245.22 379.38,235.192C385.572,233.621 385.728,231.837 390.465,230.39C402.485,226.718 401.236,235.72 398.491,235.644C396.761,235.597 398.437,231.722 394.475,232.334C381.202,234.385 363.841,274.906 357.733,287.597C357.026,289.067 357.447,289.179 356.759,290.642C355.376,293.582 340.824,324.504 339.697,327.487ZM257.434,398.139C269.079,395.239 295.768,388.565 326.871,331.652C328.656,328.385 324.198,329.191 321.499,329.158C285.504,328.722 256.471,342.114 244.672,350.741C220.979,368.064 222.71,388.541 234.751,395.051C244.823,400.496 252.957,398.709 257.434,398.139Z" style="fill:url(#_Radial1);"/>
                    </g>
                    <g transform="matrix(1.782227,0,0,1.782227,438,1284)">
                        <path d="M772.878,358.797C750.083,358.159 738.161,346.89 742.504,333.5C741.696,333.581 741.366,332.819 740.367,334.205C740.04,334.658 728.407,352.304 719.655,345.297C715.164,341.701 717.204,334.669 716.21,334.813C713.929,335.143 704.795,351.818 694.36,346.753C685.937,342.664 692.527,330.552 693.195,329.324C700.11,316.615 703.06,315.121 699.585,314.265C696.955,313.617 696.954,313.716 694.407,312.746C692.531,312.03 692.547,313.056 686.869,321.751C679.881,332.45 666.362,354.222 655.449,345.557C654.114,344.496 651.23,339.343 654.851,331.518C655.316,330.514 655.199,330.516 655.556,329.487L653.238,327.33C658.724,319.941 664.778,306.936 664.899,306.713C666.59,303.591 671.689,304.815 672.049,305.708C673.118,308.355 658.248,335.037 658.609,341.489C659.044,349.259 669.548,343.271 680.198,327.305C681.034,326.051 689.196,313.814 690.38,311.458C691.242,309.741 690.005,308.774 689.614,306.482C688.126,297.764 698.636,293.81 697.78,302.523C697.386,306.534 691.762,310.002 699.515,311.397C703.248,312.068 707.81,308.025 709.162,313.576C710.265,318.104 693.931,339.18 697.182,343.698C701.396,349.556 716.86,330.861 719.067,325.336C723.909,313.213 734.255,304.983 740.585,303.894C751.516,302.015 750.905,309.831 752.252,310.112C752.434,310.15 753.321,307.662 753.399,307.443C754.683,303.842 755.646,304.501 759.478,304.692C763.106,304.873 759.545,310.14 756.916,315.689C744.887,341.083 741.384,348.736 760.465,353.79L763.355,354.926C768.05,355.69 772.385,356.571 777.115,356.151L777.115,356.152C777.443,356.124 795.465,354.554 803.246,351.002C820.169,343.277 828.459,320.974 814.251,307.185C806.179,299.351 790.366,299.948 782.458,311.018C779.151,315.648 777.391,325.11 784.735,331.696C789.945,336.368 800.173,335.642 804.896,328.569C808.987,322.442 805.267,314.135 798.973,313.429C795.007,312.985 792.426,315.087 791.973,315.456C791.542,315.807 790.954,315.559 791.496,315.08C791.528,315.052 791.54,315.085 791.919,314.763C794.877,312.242 803.234,310.812 806.805,318.941C808.42,322.617 807.369,326.915 805.915,329.203C799.739,338.921 783.606,339.399 778.4,326.373C773.065,313.025 785.699,297.78 803.149,299.073C809.168,299.519 815.476,302.891 819.233,307.867C821.486,310.851 821.968,312.158 822.456,313.171C822.972,314.359 825.954,321.222 824.207,329.424C823.501,332.734 819.576,350.547 796.54,356.447C794.739,356.909 786.931,359.284 773.578,358.824C773.336,358.815 773.103,358.807 772.878,358.797ZM740.339,330.383C741.25,329.293 753.666,313.397 747.591,307.402C738.976,298.9 712.826,345.779 725.453,344.037C729.646,343.459 736.49,335.241 737.274,334.299C738.871,332.382 738.762,332.355 740.339,330.383Z" style="fill:url(#_Radial2);"/>
                    </g>
                    <g transform="matrix(1.782227,0,0,1.782227,438,1284)">
                        <path d="M526.508,366.038C524.111,365.699 513.552,365.576 520.448,344.481C530.699,313.122 565.426,269 552.202,245.665C545.536,233.903 530.92,236.998 525.453,238.314C489.902,246.868 472.949,292.546 493.433,302.634C507.86,309.739 522.917,296.554 523.321,296.24C532.094,289.419 539.318,277.719 540.319,275.394C541.668,272.265 543.02,274.441 543.048,274.566C543.458,276.412 532.346,295.242 518.238,303.014C497.986,314.171 478.371,303.058 482.349,280.474C489.288,241.082 535.735,225.337 553.61,239.357C569.403,251.744 562.539,271.333 560.985,276.652C555.17,296.546 535.354,329.989 527.998,347.708C517.178,373.774 538.201,358.802 539.196,358.093C561.272,342.371 609.836,267.728 615.66,244.54C617.694,236.441 612.853,236.493 609.646,239.654C601.79,247.396 600.904,257.824 598.458,255.54C597.641,254.777 600.977,247.665 603.525,243.515C612.189,229.405 621.247,231.187 620.719,240.507C619.722,258.083 572.974,330.311 546.911,354.929C535.627,365.588 531.09,365.718 526.508,366.038Z" style="fill:url(#_Radial3);"/>
                    </g>
                    <g transform="matrix(1.782227,0,0,1.782227,438,1284)">
                        <path d="M436.158,327.496C436.02,327.525 435.91,327.297 435.773,327.325C433.912,327.715 433.321,329.558 431.758,331.751C415.329,354.801 394.044,350.147 392.723,336.448C392.7,336.208 393.04,332.032 390.36,335.326C379.227,349.011 365.898,349.946 359.786,345.114C347.983,335.781 360.829,308.016 376.599,303.836C396.055,298.679 392.433,321.457 366.561,327.767C364.451,328.282 362.965,327.504 361.94,333.578C359.491,348.107 373.695,349.654 387.607,334.596C394.639,326.985 394.417,324.848 394.898,323.673C398.315,315.311 407.407,305.079 415.516,303.584C435.157,299.96 425.505,321.856 420.629,318.328C416.681,315.47 427.648,311.603 423.767,307.26C414.529,296.925 386.196,344.285 406.529,345.127C421.768,345.758 435.643,322.411 436.801,320.709C443.783,310.449 443.923,304.76 447.499,304.756C450.884,304.751 452.821,304.362 451.642,307.548C446.323,321.938 434.174,342.135 439.528,344.454C447.214,347.784 460.967,324.576 462.383,324.01C466.145,322.509 462.024,328.394 461.807,328.704C455.16,338.195 454.616,337.747 451.521,341.519C446.625,347.484 436.43,350.31 433.562,343.473C430.751,336.772 435.058,330.118 436.158,327.496ZM384.606,313.566C384.81,313.163 385.066,312.788 385.27,312.384C388.086,306.831 382.66,302.069 375.021,310.021C368.545,316.763 369.274,317.287 365.831,322.666C363.802,325.836 366.265,325.284 366.469,325.23C378.807,321.905 383.621,314.983 384.606,313.566Z" style="fill:url(#_Radial4);"/>
                    </g>
                    <g transform="matrix(1.782227,0,0,1.782227,438,1284)">
                        <path d="M591.823,328.526C591.388,328.654 590.948,328.032 590.513,328.16C590.062,328.292 589.958,328.952 589.555,329.192C589.278,329.356 588.889,329.429 588.594,329.299C586.75,328.487 589.719,325.065 591.139,323.256C594.82,317.648 594.755,317.642 597.956,311.747C601.188,305.796 600.774,304.814 603.504,304.753C606.803,304.68 608.654,304.379 607.522,307.507C603.155,319.577 592.077,339.661 595.264,343.677C598.184,347.356 604.761,340.958 605.37,340.365C616.323,329.711 617.179,324.156 618.335,321.424C620.82,315.549 628.789,306.003 636.608,303.853C652.195,299.568 652.55,314.817 639.525,322.542C630.61,327.83 627.29,327.483 624.376,328.232C623.558,328.442 622.742,329.256 621.919,334.576C619.722,348.764 632.957,344.624 633.481,344.438C643.041,341.044 648.591,333.486 653.238,327.33L655.556,329.487C655.246,329.656 654.808,329.338 654.499,329.507C653.616,329.989 641.137,351.966 623.594,347.165C618.841,345.864 615.169,341.3 615.117,336.572C615.096,334.658 614.046,334.307 612.886,335.83C612.275,336.63 602.757,350.878 593.378,346.742C589.758,345.146 586.596,338.65 591.823,328.526ZM644.654,313.583C648.702,304.353 641.438,304.596 636.657,308.695C630.283,314.158 626.643,321.473 625.867,322.688C623.815,325.899 626.269,325.393 626.48,325.341C639.088,322.238 643.717,315.04 644.654,313.583Z" style="fill:url(#_Radial5);"/>
                    </g>
                    <g transform="matrix(1.782227,0,0,1.782227,438,1284)">
                        <path d="M610.688,297.692C603.925,302.858 602.375,291.829 608.453,291.121C610.358,290.899 614.63,292.791 610.688,297.692Z" style="fill:url(#_Radial6);"/>
                    </g>
                    <g transform="matrix(1.782227,0,0,1.782227,438,1284)">
                        <path d="M448.907,293.668C450.424,291.722 450.064,290.963 452.52,290.842C454.148,290.762 455.404,291.764 455.704,292.381C458.547,298.229 447.522,302.674 448.907,293.668Z" style="fill:url(#_Radial7);"/>
                    </g>
                    <g transform="matrix(1.782227,0,0,1.782227,831,1280)">
                        <path d="M448.907,293.668C450.424,291.722 450.064,290.963 452.52,290.842C454.148,290.762 455.404,291.764 455.704,292.381C458.547,298.229 447.522,302.674 448.907,293.668Z" style="fill:url(#_Radial8);"/>
                    </g>
                    <g transform="matrix(1.782227,0,0,1.782227,438,1284)">
                        <path d="M339.697,327.487C340.104,327.634 340.338,328.105 340.745,328.252C341.3,328.453 341.917,328.402 342.5,328.501C345.154,328.953 344.027,330.48 343.539,330.57C341.562,330.935 341.608,330.275 341.463,330.358C340.892,330.687 340.763,331.543 340.192,331.872C338.652,331.273 337.895,331.12 338.838,329.778C338.958,329.607 339.11,329.462 339.237,329.296C339.876,328.46 339.869,328.486 339.891,328.4C340.014,327.917 339.573,327.977 339.697,327.487Z" style="fill:url(#_Radial9);"/>
                    </g>
                    <g transform="matrix(1.782227,0,0,1.782227,438,1284)">
                        <path d="M695.235,303.376C695.146,303.544 693.7,306.267 693.286,304.742C692.955,303.522 693.548,302.008 693.756,301.772C695.213,300.118 695.234,303.201 695.235,303.376Z" style="fill:url(#_Radial10);"/>
                    </g>
                    <g transform="matrix(0.304863,0.29261,-0.31258,0.325669,783.27169,1587.513629)">
                        <path d="M570.663,392.533C570.392,391.958 569.393,391.985 569.123,391.411C568.271,389.601 573.021,377.445 560.231,348.62C536.169,294.392 463.694,231.324 509.978,174.912C515.323,168.397 532.331,153.564 555.478,154.906C611.494,158.155 617.109,231.655 570.511,240.568C561.389,242.313 547.494,239.78 539.805,230.261C522.124,208.371 540.937,178.469 565.572,188.351C574.584,191.966 577.98,204.736 575.719,208.716C574.746,210.429 573.56,209.423 573.915,207.46C576.084,195.45 562.076,183.324 546.797,191.979C530.234,201.362 535.404,234.787 563.502,234.652C583.597,234.555 597.781,214.833 592.548,193.488C584.625,161.174 536.95,150.185 511.745,188.653C487.403,225.803 526.427,276.162 549.114,316.713C564.891,344.914 574.855,369.438 570.663,392.533Z" style="fill:url(#_Radial11);"/>
                    </g>
                    <g transform="matrix(-0.468093,0.233441,0.249373,0.50004,959.291311,1573.728702)">
                        <path d="M430.646,236.55L429.218,238.788C430.437,239.565 430.413,239.531 431.576,240.397C452.19,255.753 476.632,269.456 484.675,275.235C503.564,288.805 538.919,310.271 557.798,366.405C563.785,384.207 564.506,406.215 564.33,406.384C564.251,406.459 562.879,406.372 562.778,406.278C562.453,405.979 561.203,398.061 550.893,382.24C517.651,331.235 463.539,311.986 430.341,283.685C405.946,262.888 399.396,246.423 398.289,245.741C398.176,245.671 396.852,245.653 396.786,245.712C396.323,246.129 391.047,275.97 405.082,306.684C437.369,377.337 509.706,394.118 547.881,442.195C567.502,466.907 565.695,472.455 568.482,472.411C569.608,472.394 569.345,471.35 569.687,469.546C574.636,443.451 567.84,422.657 568.053,419.481C568.634,410.784 568.588,408.431 568.715,407.514C568.93,405.973 569.537,405.975 569.687,405.695L568.19,402.632C568.232,401.143 567.916,401.103 569.285,396.467C566.606,393.074 567.396,392.722 566.97,388.432C565.26,371.205 551.897,316.229 492.199,276.956C490.978,276.152 475.663,266.257 466.697,240.426C457.069,212.687 449.575,163.676 412.533,154.369C406.032,152.735 398.851,152.906 398.425,153.414C396.984,155.131 401.515,156.512 408.391,168.561C418.885,186.952 421.83,217.576 429.948,234.408C430.45,235.448 430.295,235.474 430.646,236.55ZM566.662,465.477C565.45,461.25 562.903,447.953 557.021,434.723C533.342,381.459 475.753,359.265 435.799,320.207C401.975,287.142 396.944,251.116 398.571,251.366C398.573,251.367 399.696,252.296 400.773,256.386C411.198,295.983 441.171,318.88 455.602,330.366C481.737,351.167 510.153,365.579 537.278,396.695C557.231,419.584 566.028,448.916 567.881,462.498C568.318,465.701 566.905,465.121 566.662,465.477ZM403.496,155.466C408.292,156.779 408.207,156.988 412.311,159.805C441.333,179.733 441.036,232.117 461.915,256.384L460.527,257.393C459.929,256.969 459.296,256.595 458.698,256.17C447.841,248.457 437.641,208.328 432.134,193.636C420.646,162.994 407.442,160.273 402.617,156.263L403.496,155.466Z" style="fill:url(#_Radial12);"/>
                    </g>
                    <g transform="matrix(-0.468093,0.233441,0.249373,0.50004,959.291311,1573.728702)">
                        <path d="M364.684,238.388C364.679,238.055 364.232,237.833 364.227,237.5C364.213,236.553 366.294,237.154 366.468,237.204C372.14,238.842 386.792,239.319 397.667,224.612C399.218,222.514 400.152,219.947 388.41,215.784C381.655,213.39 370.577,213.935 364.42,218.325C364.265,218.435 359.313,221.967 362.214,217.442C362.454,217.068 362.775,216.747 363.001,216.364C366.145,211.04 368.255,199.844 363.307,189.587C359.239,181.154 357.402,181.462 355.66,182.726C343.949,191.218 343.044,204.365 342.895,206.52C342.423,213.385 345.32,215.208 343.449,216.025C342.86,216.283 342.839,216.13 342.424,215.649C328.505,199.487 308.338,207.096 307.262,208.294C305.284,210.497 312.687,226.202 326.464,230.609C331.941,232.361 332.089,231.452 333.427,231.788C333.68,231.852 335.177,233.122 335.183,233.243C335.194,233.48 334.752,233.442 334.531,233.528C334.297,233.619 332.104,234.472 331.634,234.71C316.941,242.176 314.234,262.929 316.761,265.21C317.903,266.241 332.1,266.539 342.141,255.193C346.569,250.19 346.764,247.136 346.948,246.755C347.716,245.161 348.956,245.478 348.878,247.269C348.804,248.991 349.774,255.786 354.779,262.285C361.148,270.555 370.94,273.589 372.5,273.564C375.634,273.513 378.601,259.483 372.936,248.279C369.63,241.742 367.974,240.927 364.684,238.388ZM355.392,199.855L356.241,200.582C356.22,201.697 356.067,210.089 355.482,214.498C354.157,224.47 352.863,226.28 353.05,227.64C353.327,229.644 357.594,227.699 360.613,226.935C369.719,224.629 380.212,224.306 380.561,224.375C380.754,224.413 383.076,225.523 379.582,226.637C364.971,231.298 357.921,230.993 354.494,231.478C350.112,232.098 356.265,233.604 365.14,255.58C365.763,257.123 366.14,257.989 364.489,257.839C363.893,257.785 356.6,248.796 351.324,235.561C349.213,230.267 348.036,235.682 339.873,243.875C339.157,244.593 333.689,250.081 330.43,252.338C329.459,253.01 328.966,252.357 328.892,252.259C328.525,251.773 328.211,251.357 332.831,245.757C341.252,235.548 343.316,234.822 346.231,232.151C350.273,228.449 344.097,229.937 330.283,221.878C322.756,217.486 322.644,217.141 322.922,216.546C323.609,215.074 324.034,215.67 325.539,216.223C334.316,219.446 335.099,219.716 337.713,221.054C347.701,226.165 347.456,226.618 348.363,226.975C350.6,227.853 350.434,225.503 350.465,224.5C350.526,222.543 350.917,209.912 354.31,200.326C354.716,199.18 355.23,199.926 355.392,199.855Z" style="fill:url(#_Radial13);"/>
                    </g>
                    <g transform="matrix(-0.468093,0.233441,0.249373,0.50004,959.291311,1573.728702)">
                        <path d="M570.663,392.533C570.392,391.958 569.393,391.985 569.123,391.411C568.271,389.601 573.021,377.445 560.231,348.62C536.169,294.392 463.694,231.324 509.978,174.912C515.323,168.397 532.331,153.564 555.478,154.906C611.494,158.155 617.109,231.655 570.511,240.568C561.389,242.313 547.494,239.78 539.805,230.261C522.124,208.371 540.937,178.469 565.572,188.351C574.584,191.966 577.98,204.736 575.719,208.716C574.746,210.429 573.56,209.423 573.915,207.46C576.084,195.45 562.076,183.324 546.797,191.979C530.234,201.362 535.404,234.787 563.502,234.652C583.597,234.555 597.781,214.833 592.548,193.488C584.625,161.174 536.95,150.185 511.745,188.653C487.403,225.803 526.427,276.162 549.114,316.713C564.891,344.914 574.855,369.438 570.663,392.533Z" style="fill:url(#_Radial14);"/>
                    </g>
                    <g transform="matrix(-0.468093,0.233441,0.249373,0.50004,959.291311,1573.728702)">
                        <path d="M605.248,278.422C594.841,310.67 604.029,345.547 591.124,380.361C583.338,401.364 569.993,405.534 569.687,405.695C569.188,404.674 568.689,403.653 568.19,402.632C568.645,402.569 569.112,402.722 569.567,402.659C570.104,402.585 570.069,402.417 572.118,396.379C583.622,362.472 573.811,310.269 594.944,281.846C599.332,275.944 607.51,270.49 606.556,274.507C606.48,274.828 606.46,274.797 605.248,278.422Z" style="fill:url(#_Radial15);"/>
                    </g>
                    <g transform="matrix(-0.468093,0.233441,0.249373,0.50004,959.291311,1573.728702)">
                        <path d="M373.074,117.507C372.736,113.687 373.038,108.273 367.523,98.487C364.002,92.238 351.468,81.089 348.989,84.855C339.988,98.527 339.11,125.594 363.316,138.861C363.963,139.216 366.644,142.186 370.303,132.421C373.38,124.208 372.916,121.061 373.074,117.507ZM355.242,97.906C358.207,101.771 363.51,112.88 364.5,123.5C365.167,130.655 364.795,130.876 364.266,131.19C362.923,131.988 361.799,128.958 359.755,125.367C354.437,116.023 353.187,99.965 353.79,98.613L355.242,97.906Z" style="fill:url(#_Radial16);"/>
                    </g>
                    <g transform="matrix(-0.468093,0.233441,0.249373,0.50004,959.291311,1573.728702)">
                        <path d="M603.697,442.743C600.065,451.695 588.237,454.1 587.757,450.462C587.262,446.713 590.022,439.329 594.706,436.759C596.076,436.008 596.309,436.201 596.424,435.475C596.878,432.605 589.853,436.504 583.813,425.345C583.57,424.898 580.51,420.928 589.503,420.606C595.899,420.377 599.727,424.156 600.391,424.812C600.964,425.379 601.083,425.247 601.739,424.726C602.7,423.963 601.528,423.146 601.841,420.528C601.953,419.593 602.606,414.133 606.897,409.903C607.761,409.051 610.329,406.285 613.048,413.668C614.471,417.531 613.973,421.966 613.399,423.472C612.401,426.087 612.207,426.102 612.429,426.525C613.285,428.159 613.716,426.908 615.398,426.199C621.473,423.64 633.237,426.986 630.076,431.191C626.957,435.339 621.186,437.923 617.504,437.647C615.408,437.489 614.247,436.419 614.39,438.506C614.454,439.443 619.662,442.793 619.101,451.467C618.799,456.137 617.354,457.191 613.313,454.846C607.824,451.661 606.036,448.518 605.194,443.633C605.066,443.375 605.153,443.043 605.025,442.784C604.754,442.235 604.561,442.229 604.5,442.227C603.986,442.211 604.227,442.76 603.697,442.743Z" style="fill:url(#_Radial17);"/>
                    </g>
                    <g transform="matrix(-0.468093,0.233441,0.249373,0.50004,959.291311,1573.728702)">
                        <path d="M601.553,278.545C601.649,278.98 602.395,279.062 602.492,279.497C602.517,279.611 601.357,282.145 601.252,282.373C587.544,312.313 593.91,332.715 586.564,371.514C583.421,388.115 574.997,400.349 574.205,400.297C570.891,400.079 577.335,395.389 582.126,379.4C590.776,350.534 585.506,297.883 601.553,278.545Z" style="fill:url(#_Radial18);"/>
                    </g>
                    <g transform="matrix(-0.468093,0.233441,0.249373,0.50004,959.291311,1573.728702)">
                        <path d="M430.646,236.55C430.17,237.296 429.694,238.042 429.218,238.788C414.469,227.982 406.534,220.16 392.816,201.261C385.034,190.54 373.733,168.168 369.488,154.503C369.175,153.495 367.8,149.858 367.648,149.456C367.469,148.982 367.648,148.934 365.795,143.403C365.746,143.258 365.168,141.532 366.04,141.5C368.304,141.417 367.8,142.371 368.518,144.495C369.07,146.127 374.371,164.775 384.951,184.221C396.162,204.827 409.757,219.078 413.52,222.48C417.466,226.047 417.321,226.166 421.344,229.686C423.785,231.821 423.859,231.682 426.294,233.779C428.288,235.496 428.237,235.556 430.646,236.55Z" style="fill:url(#_Radial19);"/>
                    </g>
                    <g transform="matrix(-0.468093,0.233441,0.249373,0.50004,959.291311,1573.728702)">
                        <path d="M607.755,434.649C608.069,436.763 609.209,437.226 612.325,443.569C612.468,443.861 613.979,446.935 613.462,447.473C612.837,448.126 611.664,448.364 606.747,438.391C605.47,435.801 605.498,435.775 605.415,435.801C603.619,436.364 595.981,447.079 594.592,444.466C593.738,442.86 603.679,434.585 603.359,433.552C603.169,432.941 602.794,433.381 596.209,429.976C595.844,429.788 591.771,427.682 591.796,427.352C591.94,425.469 592.738,425.912 594.488,426.546C598.343,427.943 604.273,431.863 605.135,431.013C605.448,430.704 606.522,417.999 607.747,417.931C609.317,417.843 609.084,420.293 609.062,420.525C608.107,430.602 606.568,432.562 608.504,432.177C609.515,431.977 621.052,429.685 621.297,430.676C621.628,432.011 619.7,432.456 619.501,432.502C616.605,433.17 613.972,433.775 607.755,434.649Z" style="fill:url(#_Radial20);"/>
                    </g>
                    <g transform="matrix(-0.468093,0.233441,0.249373,0.50004,959.291311,1573.728702)">
                        <path d="M461.915,256.384C461.981,256.472 462.742,257.485 462.742,257.485C462.728,259.078 461.909,258.127 460.527,257.393C460.99,257.057 461.453,256.72 461.915,256.384Z" style="fill:url(#_Radial21);"/>
                    </g>
                    <g transform="matrix(-0.468093,0.233441,0.249373,0.50004,959.291311,1573.728702)">
                        <path d="M603.697,442.743C604.227,442.76 603.986,442.211 604.5,442.227C604.561,442.229 604.754,442.235 605.025,442.784C605.153,443.043 605.066,443.375 605.194,443.633C604.695,443.337 604.196,443.04 603.697,442.743Z" style="fill:url(#_Radial22);"/>
                    </g>
                    <g transform="matrix(0.230662,0.399231,-0.426478,0.246404,1968.644597,1555.752345)">
                        <path d="M430.646,236.55C430.295,235.474 430.45,235.448 429.948,234.408C421.83,217.576 418.885,186.952 408.391,168.561C401.515,156.512 396.984,155.131 398.425,153.414C398.851,152.906 406.032,152.735 412.533,154.369C449.575,163.676 457.069,212.687 466.697,240.426C475.663,266.257 490.978,276.152 492.199,276.956C551.897,316.229 565.26,371.205 566.97,388.432C567.396,392.722 566.606,393.074 569.285,396.467C567.916,401.103 568.232,401.143 568.19,402.632L569.687,405.695C569.537,405.975 568.93,405.973 568.715,407.514C568.588,408.431 568.634,410.784 568.053,419.481C567.84,422.657 574.636,443.451 569.687,469.546C569.345,471.35 569.608,472.394 568.482,472.411C565.695,472.455 567.502,466.907 547.881,442.195C509.706,394.118 437.369,377.337 405.082,306.684C391.047,275.97 396.323,246.129 396.786,245.712C396.852,245.653 398.176,245.671 398.289,245.741C399.396,246.423 405.946,262.888 430.341,283.685C463.539,311.986 517.651,331.235 550.893,382.24C561.203,398.061 562.453,405.979 562.778,406.278C562.879,406.372 564.251,406.459 564.33,406.384C564.506,406.215 563.785,384.207 557.798,366.405C538.919,310.271 503.564,288.805 484.675,275.235C476.632,269.456 452.19,255.753 431.576,240.397C430.413,239.531 430.437,239.565 429.218,238.788L430.646,236.55ZM403.496,155.466L402.617,156.263C407.442,160.273 420.646,162.994 432.134,193.636C437.641,208.328 447.841,248.457 458.698,256.17C459.296,256.595 459.929,256.969 460.527,257.393L461.915,256.384C441.036,232.117 441.333,179.733 412.311,159.805C408.207,156.988 408.292,156.779 403.496,155.466ZM566.662,465.477C566.905,465.121 568.318,465.701 567.881,462.498C566.028,448.916 557.231,419.584 537.278,396.695C510.153,365.579 481.737,351.167 455.602,330.366C441.171,318.88 411.198,295.983 400.773,256.386C399.696,252.296 398.573,251.367 398.571,251.366C396.944,251.116 401.975,287.142 435.799,320.207C475.753,359.265 533.342,381.459 557.021,434.723C562.903,447.953 565.45,461.25 566.662,465.477Z" style="fill:url(#_Radial23);"/>
                    </g>
                    <g transform="matrix(0.230662,0.399231,-0.426478,0.246404,1968.644597,1555.752345)">
                        <path d="M555.94,593.938C575.683,576.458 584.831,552.013 587.643,545.563C601.692,513.334 620.384,445.524 675.727,444.003C675.934,443.997 678.127,444.134 675.61,446.589C657.638,464.114 649.665,488.309 640.915,512.642C635.887,526.626 615.908,587.367 570.414,597.121C565.315,598.214 553.793,599.547 553.086,597.662C552.905,597.18 552.699,596.905 555.94,593.938Z" style="fill:url(#_Radial24);"/>
                    </g>
                    <g transform="matrix(0.230662,0.399231,-0.426478,0.246404,1968.644597,1555.752345)">
                        <path d="M364.684,238.388C367.974,240.927 369.63,241.742 372.936,248.279C378.601,259.483 375.634,273.513 372.5,273.564C370.94,273.589 361.148,270.555 354.779,262.285C349.774,255.786 348.804,248.991 348.878,247.269C348.956,245.478 347.716,245.161 346.948,246.755C346.764,247.136 346.569,250.19 342.141,255.193C332.1,266.539 317.903,266.241 316.761,265.21C314.234,262.929 316.941,242.176 331.634,234.71C332.104,234.472 334.297,233.619 334.531,233.528C334.752,233.442 335.194,233.48 335.183,233.243C335.177,233.122 333.68,231.852 333.427,231.788C332.089,231.452 331.941,232.361 326.464,230.609C312.687,226.202 305.284,210.497 307.262,208.294C308.338,207.096 328.505,199.487 342.424,215.649C342.839,216.13 342.86,216.283 343.449,216.025C345.32,215.208 342.423,213.385 342.895,206.52C343.044,204.365 343.949,191.218 355.66,182.726C357.402,181.462 359.239,181.154 363.307,189.587C368.255,199.844 366.145,211.04 363.001,216.364C362.775,216.747 362.454,217.068 362.214,217.442C359.313,221.967 364.265,218.435 364.42,218.325C370.577,213.935 381.655,213.39 388.41,215.784C400.152,219.947 399.218,222.514 397.667,224.612C386.792,239.319 372.14,238.842 366.468,237.204C366.294,237.154 364.213,236.553 364.227,237.5C364.232,237.833 364.679,238.055 364.684,238.388ZM355.392,199.855C355.23,199.926 354.716,199.18 354.31,200.326C350.917,209.912 350.526,222.543 350.465,224.5C350.434,225.503 350.6,227.853 348.363,226.975C347.456,226.618 347.701,226.165 337.713,221.054C335.099,219.716 334.316,219.446 325.539,216.223C324.034,215.67 323.609,215.074 322.922,216.546C322.644,217.141 322.756,217.486 330.283,221.878C344.097,229.937 350.273,228.449 346.231,232.151C343.316,234.822 341.252,235.548 332.831,245.757C328.211,251.357 328.525,251.773 328.892,252.259C328.966,252.357 329.459,253.01 330.43,252.338C333.689,250.081 339.157,244.593 339.873,243.875C348.036,235.682 349.213,230.267 351.324,235.561C356.6,248.796 363.893,257.785 364.489,257.839C366.14,257.989 365.763,257.123 365.14,255.58C356.265,233.604 350.112,232.098 354.494,231.478C357.921,230.993 364.971,231.298 379.582,226.637C383.076,225.523 380.754,224.413 380.561,224.375C380.212,224.306 369.719,224.629 360.613,226.935C357.594,227.699 353.327,229.644 353.05,227.64C352.863,226.28 354.157,224.47 355.482,214.498C356.067,210.089 356.22,201.697 356.241,200.582L355.392,199.855Z" style="fill:url(#_Radial25);"/>
                    </g>
                    <g transform="matrix(0.230662,0.399231,-0.426478,0.246404,1968.644597,1555.752345)">
                        <path d="M570.663,392.533C570.392,391.958 569.393,391.985 569.123,391.411C568.271,389.601 573.021,377.445 560.231,348.62C536.169,294.392 463.694,231.324 509.978,174.912C515.323,168.397 532.331,153.564 555.478,154.906C611.494,158.155 617.109,231.655 570.511,240.568C561.389,242.313 547.494,239.78 539.805,230.261C522.124,208.371 540.937,178.469 565.572,188.351C574.584,191.966 577.98,204.736 575.719,208.716C574.746,210.429 573.56,209.423 573.915,207.46C576.084,195.45 562.076,183.324 546.797,191.979C530.234,201.362 535.404,234.787 563.502,234.652C583.597,234.555 597.781,214.833 592.548,193.488C584.625,161.174 536.95,150.185 511.745,188.653C487.403,225.803 526.427,276.162 549.114,316.713C564.891,344.914 574.855,369.438 570.663,392.533Z" style="fill:url(#_Radial26);"/>
                    </g>
                    <g transform="matrix(0.230662,0.399231,-0.426478,0.246404,1968.644597,1555.752345)">
                        <path d="M605.248,278.422C594.841,310.67 604.029,345.547 591.124,380.361C583.338,401.364 569.993,405.534 569.687,405.695C569.188,404.674 568.689,403.653 568.19,402.632C568.645,402.569 569.112,402.722 569.567,402.659C570.104,402.585 570.069,402.417 572.118,396.379C583.622,362.472 573.811,310.269 594.944,281.846C599.332,275.944 607.51,270.49 606.556,274.507C606.48,274.828 606.46,274.797 605.248,278.422Z" style="fill:url(#_Radial27);"/>
                    </g>
                    <g transform="matrix(0.230662,0.399231,-0.426478,0.246404,1968.644597,1555.752345)">
                        <path d="M486.425,581.787C487.311,582.547 487.549,583.355 488.093,582.32C488.223,582.072 488.015,581.729 488.145,581.481C487.639,579.51 485.844,576.222 489.475,567.489C489.728,566.882 495.714,556.027 499.2,559.763C502.328,563.116 505.194,572.011 503.332,578.46C502.224,582.298 499.413,586.311 502.516,584.612C507.639,581.806 507.678,581.504 513.499,581.601C520.344,581.714 525.025,585.195 525.503,585.495C527.492,586.744 527.091,588.529 523.253,592.245C518.953,596.408 511.886,599.335 505.447,598.085C504.483,597.898 504.292,597.753 503.911,598.626C503.248,600.144 505.115,599.484 508.175,604.682C512.195,611.507 511.055,622.946 508.478,623.408C507.587,623.567 494.451,620.786 491.757,606.379C491.541,605.226 491.556,603.763 490.375,605.121C487.679,608.22 489.053,610.141 481.671,614.78C477.209,617.584 469.128,619.349 468.38,616.533C467.361,612.694 470.418,599.499 480.59,595.572C482.285,594.918 479.415,593.804 479.414,593.804C474.265,592.83 474.114,593.083 469.811,590.082C466.677,587.897 458.715,578.251 463.53,576.572C473.443,573.116 482.088,577.389 485.309,580.783C485.831,581.333 485.85,581.269 486.425,581.787ZM474.511,582.633L473.576,583.507C473.902,584.063 473.616,584.236 474.263,584.679C476.98,586.541 485.786,590.903 488.424,591.749C492.759,593.138 487.916,594.192 478.621,605.573C476.251,608.476 478.266,608.563 478.505,608.558C479.484,608.54 489.19,598.676 490.589,596.568C492.804,593.227 492.871,597.557 497.165,604.7C497.705,605.596 497.662,605.587 500.203,609.754C500.334,609.97 501.393,612.288 502.494,612.303C506.277,612.355 494.346,594.919 495.029,594.219C495.157,594.088 513.212,591.371 514.131,590.142C514.17,590.09 514.216,588.895 514.182,588.852C513.409,587.875 503.269,589.6 497.635,590.974C495.573,591.477 494.521,591.704 494.886,589.592C495.122,588.221 497.503,574.421 496.758,572.304C496.544,571.695 495.187,570.757 494.623,573.547C491.68,588.112 493.618,591.875 490.344,589.833C483.88,585.802 475.829,583.079 474.511,582.633Z" style="fill:url(#_Radial28);"/>
                    </g>
                    <g transform="matrix(0.230662,0.399231,-0.426478,0.246404,1968.644597,1555.752345)">
                        <path d="M373.074,117.507C372.916,121.061 373.38,124.208 370.303,132.421C366.644,142.186 363.963,139.216 363.316,138.861C339.11,125.594 339.988,98.527 348.989,84.855C351.468,81.089 364.002,92.238 367.523,98.487C373.038,108.273 372.736,113.687 373.074,117.507ZM355.242,97.906L353.79,98.613C353.187,99.965 354.437,116.023 359.755,125.367C361.799,128.958 362.923,131.988 364.266,131.19C364.795,130.876 365.167,130.655 364.5,123.5C363.51,112.88 358.207,101.771 355.242,97.906Z" style="fill:url(#_Radial29);"/>
                    </g>
                    <g transform="matrix(0.230662,0.399231,-0.426478,0.246404,1968.644597,1555.752345)">
                        <path d="M603.697,442.743C600.065,451.695 588.237,454.1 587.757,450.462C587.262,446.713 590.022,439.329 594.706,436.759C596.076,436.008 596.309,436.201 596.424,435.475C596.878,432.605 589.853,436.504 583.813,425.345C583.57,424.898 580.51,420.928 589.503,420.606C595.899,420.377 599.727,424.156 600.391,424.812C600.964,425.379 601.083,425.247 601.739,424.726C602.7,423.963 601.528,423.146 601.841,420.528C601.953,419.593 602.606,414.133 606.897,409.903C607.761,409.051 610.329,406.285 613.048,413.668C614.471,417.531 613.973,421.966 613.399,423.472C612.401,426.087 612.207,426.102 612.429,426.525C613.285,428.159 613.716,426.908 615.398,426.199C621.473,423.64 633.237,426.986 630.076,431.191C626.957,435.339 621.186,437.923 617.504,437.647C615.408,437.489 614.247,436.419 614.39,438.506C614.454,439.443 619.662,442.793 619.101,451.467C618.799,456.137 617.354,457.191 613.313,454.846C607.824,451.661 606.036,448.518 605.194,443.633C605.066,443.375 605.153,443.043 605.025,442.784C604.754,442.235 604.561,442.229 604.5,442.227C603.986,442.211 604.227,442.76 603.697,442.743Z" style="fill:url(#_Radial30);"/>
                    </g>
                    <g transform="matrix(0.230662,0.399231,-0.426478,0.246404,1968.644597,1555.752345)">
                        <path d="M557.527,595.56C571.694,586.373 587.573,583.942 608.892,536.667C622.306,506.922 632.87,471.238 660.743,451.9C668.029,446.844 672.606,445.491 671.486,447.485C669.602,450.837 650.218,453.69 630.815,495.642C614.908,530.036 605.421,565.901 576.214,587.1C568.483,592.712 559.169,596.702 558.451,596.442C558.05,596.297 557.927,595.705 557.527,595.56Z" style="fill:url(#_Radial31);"/>
                    </g>
                    <g transform="matrix(0.230662,0.399231,-0.426478,0.246404,1968.644597,1555.752345)">
                        <path d="M601.553,278.545C601.649,278.98 602.395,279.062 602.492,279.497C602.517,279.611 601.357,282.145 601.252,282.373C587.544,312.313 593.91,332.715 586.564,371.514C583.421,388.115 574.997,400.349 574.205,400.297C570.891,400.079 577.335,395.389 582.126,379.4C590.776,350.534 585.506,297.883 601.553,278.545Z" style="fill:url(#_Radial32);"/>
                    </g>
                    <g transform="matrix(0.230662,0.399231,-0.426478,0.246404,1968.644597,1555.752345)">
                        <path d="M430.646,236.55C430.17,237.296 429.694,238.042 429.218,238.788C414.469,227.982 406.534,220.16 392.816,201.261C385.034,190.54 373.733,168.168 369.488,154.503C369.175,153.495 367.8,149.858 367.648,149.456C367.469,148.982 367.648,148.934 365.795,143.403C365.746,143.258 365.168,141.532 366.04,141.5C368.304,141.417 367.8,142.371 368.518,144.495C369.07,146.127 374.371,164.775 384.951,184.221C396.162,204.827 409.757,219.078 413.52,222.48C417.466,226.047 417.321,226.166 421.344,229.686C423.785,231.821 423.859,231.682 426.294,233.779C428.288,235.496 428.237,235.556 430.646,236.55Z" style="fill:url(#_Radial33);"/>
                    </g>
                    <g transform="matrix(0.230662,0.399231,-0.426478,0.246404,1968.644597,1555.752345)">
                        <path d="M607.755,434.649C608.069,436.763 609.209,437.226 612.325,443.569C612.468,443.861 613.979,446.935 613.462,447.473C612.837,448.126 611.664,448.364 606.747,438.391C605.47,435.801 605.498,435.775 605.415,435.801C603.619,436.364 595.981,447.079 594.592,444.466C593.738,442.86 603.679,434.585 603.359,433.552C603.169,432.941 602.794,433.381 596.209,429.976C595.844,429.788 591.771,427.682 591.796,427.352C591.94,425.469 592.738,425.912 594.488,426.546C598.343,427.943 604.273,431.863 605.135,431.013C605.448,430.704 606.522,417.999 607.747,417.931C609.317,417.843 609.084,420.293 609.062,420.525C608.107,430.602 606.568,432.562 608.504,432.177C609.515,431.977 621.052,429.685 621.297,430.676C621.628,432.011 619.7,432.456 619.501,432.502C616.605,433.17 613.972,433.775 607.755,434.649Z" style="fill:url(#_Radial34);"/>
                    </g>
                    <g transform="matrix(0.230662,0.399231,-0.426478,0.246404,1968.644597,1555.752345)">
                        <path d="M461.915,256.384C461.981,256.472 462.742,257.485 462.742,257.485C462.728,259.078 461.909,258.127 460.527,257.393C460.99,257.057 461.453,256.72 461.915,256.384Z" style="fill:url(#_Radial35);"/>
                    </g>
                    <g transform="matrix(0.230662,0.399231,-0.426478,0.246404,1968.644597,1555.752345)">
                        <path d="M486.425,581.787L488.145,581.481C488.015,581.729 488.223,582.072 488.093,582.32C487.549,583.355 487.311,582.547 486.425,581.787Z" style="fill:url(#_Radial36);"/>
                    </g>
                    <g transform="matrix(0.230662,0.399231,-0.426478,0.246404,1968.644597,1555.752345)">
                        <path d="M603.697,442.743C604.227,442.76 603.986,442.211 604.5,442.227C604.561,442.229 604.754,442.235 605.025,442.784C605.153,443.043 605.066,443.375 605.194,443.633C604.695,443.337 604.196,443.04 603.697,442.743Z" style="fill:url(#_Radial37);"/>
                    </g>
                    <g transform="matrix(-0.498958,0,0,0.420063,1782.007163,1817.852092)">
                        <path d="M672.478,274.763C667.973,273.141 665.768,272.731 664.589,272.262C656.509,269.043 656.52,268.984 637.547,264.825C637.322,265.088 637.097,265.352 636.873,265.615C637.015,265.741 636.763,266.058 636.906,266.183C638.247,267.367 640.933,267.88 641.306,267.951C649.617,269.537 649.563,269.813 650.298,269.823C651.056,269.834 651.015,269.871 651.647,270.249C652.044,270.487 656.041,271.557 656.426,271.661C659.864,272.581 659.546,273.39 662.43,274.655C671.515,278.642 671.617,278.276 672.374,278.682C674.887,280.032 674.72,280.286 674.945,280.387C675.163,280.485 675.423,280.268 675.658,280.312C675.869,280.352 680.265,282.354 679.544,283.527C678.446,285.315 677.239,282.414 670.511,280.387C663.958,278.412 664.229,277.674 657.621,276.001C651.966,274.141 646.319,271.906 639.39,270.104C638.445,269.864 638.494,269.767 637.541,269.634C637.159,269.58 636.775,269.212 636.419,269.358C635.985,269.537 635.36,270.024 635.539,270.457C635.579,270.552 635.603,269.997 636.823,270.334C637.514,270.525 637.247,270.93 637.92,271.116C639.695,271.654 641.097,272.81 641.808,273.073C647.127,275.04 648.143,274.202 648.668,276.768C648.692,276.888 648.384,276.909 648.409,277.03C640.886,276.416 621.057,268.212 588.492,270.424C587.755,270.474 587.767,270.494 573.491,272.442C551.755,275.406 512.165,294.9 485.494,299.461C482.65,299.948 454.515,307.106 411.542,292.378C372.741,279.079 330.032,254.211 285.438,260.106C242.152,265.829 206.243,288.852 180.463,296.365C178.858,296.832 178.98,297.118 160.602,302.829C158.013,303.634 157.968,303.371 155.42,304.242C153.416,304.926 151.188,304.335 147.599,305.807C145.869,306.516 143.045,307.673 124.47,309.104C120.301,309.425 104.618,309.331 101.422,307.709C96.459,305.189 89.91,305.963 81.415,302.685C81.936,302.442 81.833,301.482 82.354,301.239C82.747,301.055 83.149,301.641 83.581,301.673C83.792,301.688 84.012,301.539 84.138,301.369C84.37,301.054 84.369,300.605 84.602,300.291C77.968,298.132 78.077,297.945 71.747,295.106C62.001,289.929 59.086,286.845 57.821,286.051C55.963,284.883 47.982,277.368 46.236,274.569C38.94,262.869 38.044,262.867 38.772,261.649C39.746,260.019 41.581,263.762 42.274,264.848C44.902,269.091 45.161,268.875 47.557,273.225C53.079,279.253 53.013,279.469 53.507,279.443C54.032,279.417 54.18,278.444 54.705,278.417C54.674,278.073 54.271,277.835 54.24,277.491C54.211,277.16 54.454,276.861 54.538,276.54C54.824,275.438 55.351,275.776 55.512,275.625C56.598,275.985 56.839,275.542 58.701,277.268C65.859,283.903 84.214,293.084 85.394,291.402C87.367,288.592 66.322,287.415 51.419,265.543C50.001,263.461 47.184,256.529 47.183,256.497C47.177,256.319 47.653,252.917 49.405,256.552C49.512,256.773 50.585,258.999 50.671,259.349C51.842,264.077 65.963,285.188 98.454,290.781C154.093,300.357 204.236,264.208 254.594,249.825C283.294,241.628 300.103,242.659 301.5,242.659C355.5,242.661 402.505,277.339 448.512,283.413C489.831,288.868 519.354,268.845 556.569,258.766C578.303,252.88 578.639,254.868 588.455,253.217C589.173,253.096 591.218,253.331 592.474,253.222C593.734,253.111 604.764,253.667 607.499,253.663C613.038,253.654 612.979,253.973 618.499,254.513C645.082,257.117 651.406,261.598 659.528,263.394C664.968,264.597 669.807,268.338 673.624,269.186C673.804,269.226 680.803,272.389 683.716,274.18C687.887,276.745 688.065,276.388 688.415,276.627C690.296,277.912 690.681,277.125 692.461,278.555C693.702,279.553 710.126,287.347 707.394,289.294C705.626,290.555 704.717,286.274 697.484,284.577C696.141,284.261 692.202,281.206 682.558,276.269C682.405,276.174 680.643,275.074 680.643,275.074C677.739,273.741 677.851,275.469 677.472,275.669C674.929,275.259 674.972,275.248 672.478,274.763Z" style="fill:url(#_Radial38);"/>
                    </g>
                    <g transform="matrix(0.440204,0.042101,-0.042101,0.440204,334.545921,891.874717)">
                        <path d="M1803.21,2197.233C1805.098,2201.113 1806.835,2204.743 1806.924,2205.094C1806.98,2205.318 1806.928,2206.59 1806.724,2206.771C1806.22,2207.217 1805.354,2206.638 1802.347,2205.327C1801.999,2205.176 1797.736,2202.976 1795.633,2201.817C1789.501,2198.437 1786.293,2197.355 1785.44,2197.068C1783.922,2196.556 1783.783,2196.316 1783.278,2196.888C1782.645,2197.603 1782.673,2197.618 1775.62,2206.041C1768.711,2214.291 1768.73,2214.31 1768.049,2214.952C1767.09,2215.856 1765.551,2216.007 1765.418,2215.333C1765.381,2215.144 1764.184,2194.77 1764.105,2193.902C1764.004,2192.806 1763.967,2189.548 1763.73,2189.225C1763.585,2189.027 1746.234,2180.182 1744.258,2179.138C1743.681,2178.833 1740.564,2177.646 1741.924,2176.192C1742.903,2175.145 1743.851,2175.027 1749.13,2173.721C1752.155,2172.972 1755.233,2172.349 1755.766,2172.241C1763.22,2170.731 1763.53,2170.916 1764.489,2169.795C1765.587,2168.509 1765.395,2167.412 1767.133,2158.892C1768.239,2153.471 1769.91,2144.461 1770.269,2144.167C1770.551,2143.934 1771.458,2143.927 1772.033,2144.756C1778.74,2154.416 1782.163,2161.149 1784.946,2164.458C1785.765,2165.433 1785.748,2165.644 1786.338,2165.496C1788.021,2165.072 1798.835,2162.221 1802.799,2161.252C1802.831,2161.245 1807.832,2160.174 1808.668,2160.292C1809.557,2160.417 1809.808,2161.805 1809.294,2162.662C1809.03,2163.102 1801.51,2172.738 1797.032,2178.191C1796.735,2178.553 1796.498,2178.899 1796.314,2179.233C1809.103,2183.2 1835.411,2189.026 1849.444,2190.826C1850.174,2190.92 1850.111,2191.063 1858.509,2192.44C1859.145,2192.544 1859.174,2192.289 1866.508,2193.445C1874.259,2194.666 1920.245,2198.659 1942.541,2195.845C1943.288,2195.75 1986.037,2195.769 2059.409,2173.216C2126.169,2152.696 2165.961,2138.691 2215.509,2131.568C2219.018,2131.064 2218.937,2130.791 2222.501,2130.516C2230.011,2129.937 2242.851,2126.659 2283.5,2126.659C2307.912,2126.659 2307.858,2127.586 2316.52,2128.346C2318.054,2128.481 2318.012,2128.051 2319.528,2128.238C2321.37,2128.467 2321.261,2128.88 2342.493,2131.541C2343.537,2131.672 2343.509,2131.824 2355.473,2133.652C2358.223,2134.072 2385.534,2139.406 2393.442,2141.694C2393.85,2141.843 2393.812,2141.834 2396.757,2143.022C2400.948,2143.74 2401.223,2143.845 2404.694,2145.033C2404.869,2144.94 2404.973,2145.041 2405.069,2145.161L2405.564,2145.33C2411.645,2146.531 2411.392,2147.502 2417.529,2148.382C2418.256,2148.486 2418.18,2148.744 2426.415,2150.706C2431.057,2151.813 2430.95,2152.063 2435.448,2153.626C2437.526,2154.348 2443.081,2163.729 2394.085,2157.896C2391.042,2157.534 2379.627,2154.442 2376.549,2154.659C2363.072,2152.912 2359.887,2150.982 2340.526,2148.342C2329.301,2146.812 2329.408,2145.913 2312.516,2145.209C2311.315,2145.159 2311.346,2144.872 2297.523,2144.169C2223.079,2140.387 2167.769,2159.556 2134.42,2168.2C2122.482,2171.294 2041.844,2197.215 2031.478,2198.296C2030.591,2198.388 2001.985,2205.621 1981.495,2208.469C1978.784,2208.846 1956.933,2211.884 1947.492,2212.321C1935.385,2212.882 1925.977,2214.556 1897.48,2212.921C1887.534,2212.35 1887.549,2212.57 1880.478,2211.703C1879.621,2211.598 1877.898,2211.864 1876.505,2211.477C1869.712,2209.591 1869.407,2211.901 1862.586,2210.142C1858.712,2209.142 1831.092,2205.694 1827.531,2203.427C1823.912,2201.122 1817.073,2201.108 1813.233,2199.997C1807.903,2198.779 1806.877,2198.227 1803.21,2197.233Z" style="fill:url(#_Radial39);"/>
                    </g>
                    <g transform="matrix(0.103306,0.013603,-0.013603,0.103306,1125.30188,1721.01692)">
                        <path d="M481.494,256.777C481.686,256.785 511.739,258.068 516.326,259.974C521.201,262 520.583,270.274 516.393,274.391C514.239,276.508 457.195,320.276 423.651,344.716C404.714,358.514 412.377,371.993 416.673,394.465C416.713,394.677 420.536,412.81 420.872,414.405C427.208,444.46 440.284,508.881 440.262,512.499C440.253,513.856 438.082,521.02 436.653,521.749C433.122,523.548 429.048,518.971 413.858,507.069C412.103,505.694 391.074,486.877 380.809,477.171C350.886,448.875 334.215,437.98 329.786,435.086C321.898,429.931 321.46,428.358 317.737,430.867C313.08,434.006 313.219,434.135 260.622,471.682C209.107,508.458 209.19,508.597 204.367,511.243C197.567,514.975 188.58,513.567 188.819,509.529C188.886,508.399 212.149,390.629 212.977,385.565C214.022,379.181 218.621,360.574 217.749,358.385C217.215,357.043 131.475,281.069 121.765,272.209C118.927,269.619 102.934,258.261 112.823,251.99C119.946,247.472 125.513,248.199 157.499,248.553C175.832,248.757 194.275,249.75 197.47,249.922C242.143,252.329 243.632,253.841 250.746,248.87C258.898,243.173 259.423,236.639 281.899,190.692C296.196,161.463 319.012,112.626 321.486,111.478C323.436,110.573 328.611,111.869 330.664,117.439C354.59,182.341 364.146,225.733 375.103,248.682C378.329,255.438 377.922,256.617 381.499,256.642C391.708,256.715 457.492,256.443 481.494,256.777Z" style="fill:url(#_Radial40);"/>
                    </g>
                    <g transform="matrix(0.069853,-0.007136,0.007136,0.069853,1733.198416,1748.510433)">
                        <path d="M481.494,256.777C481.686,256.785 511.739,258.068 516.326,259.974C521.201,262 520.583,270.274 516.393,274.391C514.239,276.508 457.195,320.276 423.651,344.716C404.714,358.514 412.377,371.993 416.673,394.465C416.713,394.677 420.536,412.81 420.872,414.405C427.208,444.46 440.284,508.881 440.262,512.499C440.253,513.856 438.082,521.02 436.653,521.749C433.122,523.548 429.048,518.971 413.858,507.069C412.103,505.694 391.074,486.877 380.809,477.171C350.886,448.875 334.215,437.98 329.786,435.086C321.898,429.931 321.46,428.358 317.737,430.867C313.08,434.006 313.219,434.135 260.622,471.682C209.107,508.458 209.19,508.597 204.367,511.243C197.567,514.975 188.58,513.567 188.819,509.529C188.886,508.399 212.149,390.629 212.977,385.565C214.022,379.181 218.621,360.574 217.749,358.385C217.215,357.043 131.475,281.069 121.765,272.209C118.927,269.619 102.934,258.261 112.823,251.99C119.946,247.472 125.513,248.199 157.499,248.553C175.832,248.757 194.275,249.75 197.47,249.922C242.143,252.329 243.632,253.841 250.746,248.87C258.898,243.173 259.423,236.639 281.899,190.692C296.196,161.463 319.012,112.626 321.486,111.478C323.436,110.573 328.611,111.869 330.664,117.439C354.59,182.341 364.146,225.733 375.103,248.682C378.329,255.438 377.922,256.617 381.499,256.642C391.708,256.715 457.492,256.443 481.494,256.777Z" style="fill:url(#_Radial41);"/>
                    </g>
                    <g transform="matrix(0.046402,0.022319,-0.022319,0.046402,872.434815,1905.08027)">
                        <path d="M481.494,256.777C481.686,256.785 511.739,258.068 516.326,259.974C521.201,262 520.583,270.274 516.393,274.391C514.239,276.508 457.195,320.276 423.651,344.716C404.714,358.514 412.377,371.993 416.673,394.465C416.713,394.677 420.536,412.81 420.872,414.405C427.208,444.46 440.284,508.881 440.262,512.499C440.253,513.856 438.082,521.02 436.653,521.749C433.122,523.548 429.048,518.971 413.858,507.069C412.103,505.694 391.074,486.877 380.809,477.171C350.886,448.875 334.215,437.98 329.786,435.086C321.898,429.931 321.46,428.358 317.737,430.867C313.08,434.006 313.219,434.135 260.622,471.682C209.107,508.458 209.19,508.597 204.367,511.243C197.567,514.975 188.58,513.567 188.819,509.529C188.886,508.399 212.149,390.629 212.977,385.565C214.022,379.181 218.621,360.574 217.749,358.385C217.215,357.043 131.475,281.069 121.765,272.209C118.927,269.619 102.934,258.261 112.823,251.99C119.946,247.472 125.513,248.199 157.499,248.553C175.832,248.757 194.275,249.75 197.47,249.922C242.143,252.329 243.632,253.841 250.746,248.87C258.898,243.173 259.423,236.639 281.899,190.692C296.196,161.463 319.012,112.626 321.486,111.478C323.436,110.573 328.611,111.869 330.664,117.439C354.59,182.341 364.146,225.733 375.103,248.682C378.329,255.438 377.922,256.617 381.499,256.642C391.708,256.715 457.492,256.443 481.494,256.777Z" style="fill:url(#_Radial42);"/>
                    </g>
                </g>
                <g transform="matrix(0.912802,0,0,0.912802,608.963641,-945.237634)">
                    <g transform="matrix(63.90578,0,0,63.90578,1760.900268,2118.974093)">
                    </g>
                    <text x="1185.505px" y="2118.974px" style="font-family:'KhmerMN', 'Khmer MN';font-size:63.906px;fill:rgb(220,151,136);">N<tspan x="1235.032px 1281.626px 1306.689px 1346.23px 1385.741px 1420.827px 1473.287px 1515.45px 1554.96px 1580.023px 1633.981px 1683.508px 1725.671px " y="2118.974px 2118.974px 2118.974px 2118.974px 2118.974px 2118.974px 2118.974px 2118.974px 2118.974px 2118.974px 2118.974px 2118.974px 2118.974px ">AILS DESIGNER</tspan></text>
                </g>
            </g>
        </g>
    </g>
    <defs>
        <radialGradient id="_Radial1" cx="0" cy="0" r="1" gradientUnits="userSpaceOnUse" gradientTransform="matrix(614.587109,-27.929176,27.929176,614.587109,237.540239,312.944892)"><stop offset="0" style="stop-color:rgb(238,203,195);stop-opacity:1"/><stop offset="0.42" style="stop-color:rgb(163,78,74);stop-opacity:1"/><stop offset="0.77" style="stop-color:rgb(234,169,152);stop-opacity:1"/><stop offset="1" style="stop-color:rgb(214,148,136);stop-opacity:1"/></radialGradient>
        <radialGradient id="_Radial2" cx="0" cy="0" r="1" gradientUnits="userSpaceOnUse" gradientTransform="matrix(614.587109,-27.929176,27.929176,614.587109,232.509465,297.412238)"><stop offset="0" style="stop-color:rgb(238,203,195);stop-opacity:1"/><stop offset="0.42" style="stop-color:rgb(163,78,74);stop-opacity:1"/><stop offset="0.77" style="stop-color:rgb(234,169,152);stop-opacity:1"/><stop offset="1" style="stop-color:rgb(214,148,136);stop-opacity:1"/></radialGradient>
        <radialGradient id="_Radial3" cx="0" cy="0" r="1" gradientUnits="userSpaceOnUse" gradientTransform="matrix(614.587109,-27.929176,27.929176,614.587109,232.509465,297.412238)"><stop offset="0" style="stop-color:rgb(238,203,195);stop-opacity:1"/><stop offset="0.42" style="stop-color:rgb(163,78,74);stop-opacity:1"/><stop offset="0.77" style="stop-color:rgb(234,169,152);stop-opacity:1"/><stop offset="1" style="stop-color:rgb(214,148,136);stop-opacity:1"/></radialGradient>
        <radialGradient id="_Radial4" cx="0" cy="0" r="1" gradientUnits="userSpaceOnUse" gradientTransform="matrix(614.587109,-27.929176,27.929176,614.587109,232.509465,297.412238)"><stop offset="0" style="stop-color:rgb(238,203,195);stop-opacity:1"/><stop offset="0.42" style="stop-color:rgb(163,78,74);stop-opacity:1"/><stop offset="0.77" style="stop-color:rgb(234,169,152);stop-opacity:1"/><stop offset="1" style="stop-color:rgb(214,148,136);stop-opacity:1"/></radialGradient>
        <radialGradient id="_Radial5" cx="0" cy="0" r="1" gradientUnits="userSpaceOnUse" gradientTransform="matrix(614.587109,-27.929176,27.929176,614.587109,232.509465,297.412238)"><stop offset="0" style="stop-color:rgb(238,203,195);stop-opacity:1"/><stop offset="0.42" style="stop-color:rgb(163,78,74);stop-opacity:1"/><stop offset="0.77" style="stop-color:rgb(234,169,152);stop-opacity:1"/><stop offset="1" style="stop-color:rgb(214,148,136);stop-opacity:1"/></radialGradient>
        <radialGradient id="_Radial6" cx="0" cy="0" r="1" gradientUnits="userSpaceOnUse" gradientTransform="matrix(614.587109,-27.929176,27.929176,614.587109,232.509465,297.412238)"><stop offset="0" style="stop-color:rgb(238,203,195);stop-opacity:1"/><stop offset="0.42" style="stop-color:rgb(163,78,74);stop-opacity:1"/><stop offset="0.77" style="stop-color:rgb(234,169,152);stop-opacity:1"/><stop offset="1" style="stop-color:rgb(214,148,136);stop-opacity:1"/></radialGradient>
        <radialGradient id="_Radial7" cx="0" cy="0" r="1" gradientUnits="userSpaceOnUse" gradientTransform="matrix(614.587109,-27.929176,27.929176,614.587109,232.509465,297.412238)"><stop offset="0" style="stop-color:rgb(238,203,195);stop-opacity:1"/><stop offset="0.42" style="stop-color:rgb(163,78,74);stop-opacity:1"/><stop offset="0.77" style="stop-color:rgb(234,169,152);stop-opacity:1"/><stop offset="1" style="stop-color:rgb(214,148,136);stop-opacity:1"/></radialGradient>
        <radialGradient id="_Radial8" cx="0" cy="0" r="1" gradientUnits="userSpaceOnUse" gradientTransform="matrix(614.587109,-27.929176,27.929176,614.587109,11.99878,299.656622)"><stop offset="0" style="stop-color:rgb(238,203,195);stop-opacity:1"/><stop offset="0.42" style="stop-color:rgb(163,78,74);stop-opacity:1"/><stop offset="0.77" style="stop-color:rgb(234,169,152);stop-opacity:1"/><stop offset="1" style="stop-color:rgb(214,148,136);stop-opacity:1"/></radialGradient>
        <radialGradient id="_Radial9" cx="0" cy="0" r="1" gradientUnits="userSpaceOnUse" gradientTransform="matrix(614.587109,-27.929176,27.929176,614.587109,232.509465,297.412238)"><stop offset="0" style="stop-color:rgb(238,203,195);stop-opacity:1"/><stop offset="0.42" style="stop-color:rgb(163,78,74);stop-opacity:1"/><stop offset="0.77" style="stop-color:rgb(234,169,152);stop-opacity:1"/><stop offset="1" style="stop-color:rgb(214,148,136);stop-opacity:1"/></radialGradient>
        <radialGradient id="_Radial10" cx="0" cy="0" r="1" gradientUnits="userSpaceOnUse" gradientTransform="matrix(614.587109,-27.929176,27.929176,614.587109,232.509465,297.412238)"><stop offset="0" style="stop-color:rgb(238,203,195);stop-opacity:1"/><stop offset="0.42" style="stop-color:rgb(163,78,74);stop-opacity:1"/><stop offset="0.77" style="stop-color:rgb(234,169,152);stop-opacity:1"/><stop offset="1" style="stop-color:rgb(214,148,136);stop-opacity:1"/></radialGradient>
        <radialGradient id="_Radial11" cx="0" cy="0" r="1" gradientUnits="userSpaceOnUse" gradientTransform="matrix(1788.517444,-1759.805855,1879.908925,1674.253166,489.233232,256.050232)"><stop offset="0" style="stop-color:rgb(238,203,195);stop-opacity:1"/><stop offset="0.42" style="stop-color:rgb(163,78,74);stop-opacity:1"/><stop offset="0.77" style="stop-color:rgb(234,169,152);stop-opacity:1"/><stop offset="1" style="stop-color:rgb(214,148,136);stop-opacity:1"/></radialGradient>
        <radialGradient id="_Radial12" cx="0" cy="0" r="1" gradientUnits="userSpaceOnUse" gradientTransform="matrix(-1916.398396,795.116524,849.381565,1793.964097,387.946879,299.505505)"><stop offset="0" style="stop-color:rgb(238,203,195);stop-opacity:1"/><stop offset="0.42" style="stop-color:rgb(163,78,74);stop-opacity:1"/><stop offset="0.77" style="stop-color:rgb(234,169,152);stop-opacity:1"/><stop offset="1" style="stop-color:rgb(214,148,136);stop-opacity:1"/></radialGradient>
        <radialGradient id="_Radial13" cx="0" cy="0" r="1" gradientUnits="userSpaceOnUse" gradientTransform="matrix(-1916.398396,795.116524,849.381565,1793.964097,387.946879,299.505505)"><stop offset="0" style="stop-color:rgb(238,203,195);stop-opacity:1"/><stop offset="0.42" style="stop-color:rgb(163,78,74);stop-opacity:1"/><stop offset="0.77" style="stop-color:rgb(234,169,152);stop-opacity:1"/><stop offset="1" style="stop-color:rgb(214,148,136);stop-opacity:1"/></radialGradient>
        <radialGradient id="_Radial14" cx="0" cy="0" r="1" gradientUnits="userSpaceOnUse" gradientTransform="matrix(-1916.398396,795.116524,849.381565,1793.964097,387.946879,299.505505)"><stop offset="0" style="stop-color:rgb(238,203,195);stop-opacity:1"/><stop offset="0.42" style="stop-color:rgb(163,78,74);stop-opacity:1"/><stop offset="0.77" style="stop-color:rgb(234,169,152);stop-opacity:1"/><stop offset="1" style="stop-color:rgb(214,148,136);stop-opacity:1"/></radialGradient>
        <radialGradient id="_Radial15" cx="0" cy="0" r="1" gradientUnits="userSpaceOnUse" gradientTransform="matrix(-1916.398396,795.116524,849.381565,1793.964097,387.946879,299.505505)"><stop offset="0" style="stop-color:rgb(238,203,195);stop-opacity:1"/><stop offset="0.42" style="stop-color:rgb(163,78,74);stop-opacity:1"/><stop offset="0.77" style="stop-color:rgb(234,169,152);stop-opacity:1"/><stop offset="1" style="stop-color:rgb(214,148,136);stop-opacity:1"/></radialGradient>
        <radialGradient id="_Radial16" cx="0" cy="0" r="1" gradientUnits="userSpaceOnUse" gradientTransform="matrix(-1916.398396,795.116524,849.381565,1793.964097,387.946879,299.505505)"><stop offset="0" style="stop-color:rgb(238,203,195);stop-opacity:1"/><stop offset="0.42" style="stop-color:rgb(163,78,74);stop-opacity:1"/><stop offset="0.77" style="stop-color:rgb(234,169,152);stop-opacity:1"/><stop offset="1" style="stop-color:rgb(214,148,136);stop-opacity:1"/></radialGradient>
        <radialGradient id="_Radial17" cx="0" cy="0" r="1" gradientUnits="userSpaceOnUse" gradientTransform="matrix(-1916.398396,795.116524,849.381565,1793.964097,387.946879,299.505505)"><stop offset="0" style="stop-color:rgb(238,203,195);stop-opacity:1"/><stop offset="0.42" style="stop-color:rgb(163,78,74);stop-opacity:1"/><stop offset="0.77" style="stop-color:rgb(234,169,152);stop-opacity:1"/><stop offset="1" style="stop-color:rgb(214,148,136);stop-opacity:1"/></radialGradient>
        <radialGradient id="_Radial18" cx="0" cy="0" r="1" gradientUnits="userSpaceOnUse" gradientTransform="matrix(-1916.398396,795.116524,849.381565,1793.964097,387.946879,299.505505)"><stop offset="0" style="stop-color:rgb(238,203,195);stop-opacity:1"/><stop offset="0.42" style="stop-color:rgb(163,78,74);stop-opacity:1"/><stop offset="0.77" style="stop-color:rgb(234,169,152);stop-opacity:1"/><stop offset="1" style="stop-color:rgb(214,148,136);stop-opacity:1"/></radialGradient>
        <radialGradient id="_Radial19" cx="0" cy="0" r="1" gradientUnits="userSpaceOnUse" gradientTransform="matrix(-1916.398396,795.116524,849.381565,1793.964097,387.946879,299.505505)"><stop offset="0" style="stop-color:rgb(238,203,195);stop-opacity:1"/><stop offset="0.42" style="stop-color:rgb(163,78,74);stop-opacity:1"/><stop offset="0.77" style="stop-color:rgb(234,169,152);stop-opacity:1"/><stop offset="1" style="stop-color:rgb(214,148,136);stop-opacity:1"/></radialGradient>
        <radialGradient id="_Radial20" cx="0" cy="0" r="1" gradientUnits="userSpaceOnUse" gradientTransform="matrix(-1916.398396,795.116524,849.381565,1793.964097,387.946879,299.505505)"><stop offset="0" style="stop-color:rgb(238,203,195);stop-opacity:1"/><stop offset="0.42" style="stop-color:rgb(163,78,74);stop-opacity:1"/><stop offset="0.77" style="stop-color:rgb(234,169,152);stop-opacity:1"/><stop offset="1" style="stop-color:rgb(214,148,136);stop-opacity:1"/></radialGradient>
        <radialGradient id="_Radial21" cx="0" cy="0" r="1" gradientUnits="userSpaceOnUse" gradientTransform="matrix(-1916.398396,795.116524,849.381565,1793.964097,387.946879,299.505505)"><stop offset="0" style="stop-color:rgb(238,203,195);stop-opacity:1"/><stop offset="0.42" style="stop-color:rgb(163,78,74);stop-opacity:1"/><stop offset="0.77" style="stop-color:rgb(234,169,152);stop-opacity:1"/><stop offset="1" style="stop-color:rgb(214,148,136);stop-opacity:1"/></radialGradient>
        <radialGradient id="_Radial22" cx="0" cy="0" r="1" gradientUnits="userSpaceOnUse" gradientTransform="matrix(-1916.398396,795.116524,849.381565,1793.964097,387.946879,299.505505)"><stop offset="0" style="stop-color:rgb(238,203,195);stop-opacity:1"/><stop offset="0.42" style="stop-color:rgb(163,78,74);stop-opacity:1"/><stop offset="0.77" style="stop-color:rgb(234,169,152);stop-opacity:1"/><stop offset="1" style="stop-color:rgb(214,148,136);stop-opacity:1"/></radialGradient>
        <radialGradient id="_Radial23" cx="0" cy="0" r="1" gradientUnits="userSpaceOnUse" gradientTransform="matrix(1094.96726,-1976.108645,2110.973928,1025.012313,-726.071315,2224.695562)"><stop offset="0" style="stop-color:rgb(238,203,195);stop-opacity:1"/><stop offset="0.42" style="stop-color:rgb(163,78,74);stop-opacity:1"/><stop offset="0.77" style="stop-color:rgb(234,169,152);stop-opacity:1"/><stop offset="1" style="stop-color:rgb(214,148,136);stop-opacity:1"/></radialGradient>
        <radialGradient id="_Radial24" cx="0" cy="0" r="1" gradientUnits="userSpaceOnUse" gradientTransform="matrix(1094.96726,-1976.108645,2110.973928,1025.012313,-726.071315,2224.695562)"><stop offset="0" style="stop-color:rgb(238,203,195);stop-opacity:1"/><stop offset="0.42" style="stop-color:rgb(163,78,74);stop-opacity:1"/><stop offset="0.77" style="stop-color:rgb(234,169,152);stop-opacity:1"/><stop offset="1" style="stop-color:rgb(214,148,136);stop-opacity:1"/></radialGradient>
        <radialGradient id="_Radial25" cx="0" cy="0" r="1" gradientUnits="userSpaceOnUse" gradientTransform="matrix(1094.96726,-1976.108645,2110.973928,1025.012313,-726.071315,2224.695562)"><stop offset="0" style="stop-color:rgb(238,203,195);stop-opacity:1"/><stop offset="0.42" style="stop-color:rgb(163,78,74);stop-opacity:1"/><stop offset="0.77" style="stop-color:rgb(234,169,152);stop-opacity:1"/><stop offset="1" style="stop-color:rgb(214,148,136);stop-opacity:1"/></radialGradient>
        <radialGradient id="_Radial26" cx="0" cy="0" r="1" gradientUnits="userSpaceOnUse" gradientTransform="matrix(1094.96726,-1976.108645,2110.973928,1025.012313,-726.071315,2224.695562)"><stop offset="0" style="stop-color:rgb(238,203,195);stop-opacity:1"/><stop offset="0.42" style="stop-color:rgb(163,78,74);stop-opacity:1"/><stop offset="0.77" style="stop-color:rgb(234,169,152);stop-opacity:1"/><stop offset="1" style="stop-color:rgb(214,148,136);stop-opacity:1"/></radialGradient>
        <radialGradient id="_Radial27" cx="0" cy="0" r="1" gradientUnits="userSpaceOnUse" gradientTransform="matrix(1094.96726,-1976.108645,2110.973928,1025.012313,-726.071315,2224.695562)"><stop offset="0" style="stop-color:rgb(238,203,195);stop-opacity:1"/><stop offset="0.42" style="stop-color:rgb(163,78,74);stop-opacity:1"/><stop offset="0.77" style="stop-color:rgb(234,169,152);stop-opacity:1"/><stop offset="1" style="stop-color:rgb(214,148,136);stop-opacity:1"/></radialGradient>
        <radialGradient id="_Radial28" cx="0" cy="0" r="1" gradientUnits="userSpaceOnUse" gradientTransform="matrix(1094.96726,-1976.108645,2110.973928,1025.012313,-726.071315,2224.695562)"><stop offset="0" style="stop-color:rgb(238,203,195);stop-opacity:1"/><stop offset="0.42" style="stop-color:rgb(163,78,74);stop-opacity:1"/><stop offset="0.77" style="stop-color:rgb(234,169,152);stop-opacity:1"/><stop offset="1" style="stop-color:rgb(214,148,136);stop-opacity:1"/></radialGradient>
        <radialGradient id="_Radial29" cx="0" cy="0" r="1" gradientUnits="userSpaceOnUse" gradientTransform="matrix(1094.96726,-1976.108645,2110.973928,1025.012313,-726.071315,2224.695562)"><stop offset="0" style="stop-color:rgb(238,203,195);stop-opacity:1"/><stop offset="0.42" style="stop-color:rgb(163,78,74);stop-opacity:1"/><stop offset="0.77" style="stop-color:rgb(234,169,152);stop-opacity:1"/><stop offset="1" style="stop-color:rgb(214,148,136);stop-opacity:1"/></radialGradient>
        <radialGradient id="_Radial30" cx="0" cy="0" r="1" gradientUnits="userSpaceOnUse" gradientTransform="matrix(1094.96726,-1976.108645,2110.973928,1025.012313,-726.071315,2224.695562)"><stop offset="0" style="stop-color:rgb(238,203,195);stop-opacity:1"/><stop offset="0.42" style="stop-color:rgb(163,78,74);stop-opacity:1"/><stop offset="0.77" style="stop-color:rgb(234,169,152);stop-opacity:1"/><stop offset="1" style="stop-color:rgb(214,148,136);stop-opacity:1"/></radialGradient>
        <radialGradient id="_Radial31" cx="0" cy="0" r="1" gradientUnits="userSpaceOnUse" gradientTransform="matrix(1094.96726,-1976.108645,2110.973928,1025.012313,-726.071315,2224.695562)"><stop offset="0" style="stop-color:rgb(238,203,195);stop-opacity:1"/><stop offset="0.42" style="stop-color:rgb(163,78,74);stop-opacity:1"/><stop offset="0.77" style="stop-color:rgb(234,169,152);stop-opacity:1"/><stop offset="1" style="stop-color:rgb(214,148,136);stop-opacity:1"/></radialGradient>
        <radialGradient id="_Radial32" cx="0" cy="0" r="1" gradientUnits="userSpaceOnUse" gradientTransform="matrix(1094.96726,-1976.108645,2110.973928,1025.012313,-726.071315,2224.695562)"><stop offset="0" style="stop-color:rgb(238,203,195);stop-opacity:1"/><stop offset="0.42" style="stop-color:rgb(163,78,74);stop-opacity:1"/><stop offset="0.77" style="stop-color:rgb(234,169,152);stop-opacity:1"/><stop offset="1" style="stop-color:rgb(214,148,136);stop-opacity:1"/></radialGradient>
        <radialGradient id="_Radial33" cx="0" cy="0" r="1" gradientUnits="userSpaceOnUse" gradientTransform="matrix(1094.96726,-1976.108645,2110.973928,1025.012313,-726.071315,2224.695562)"><stop offset="0" style="stop-color:rgb(238,203,195);stop-opacity:1"/><stop offset="0.42" style="stop-color:rgb(163,78,74);stop-opacity:1"/><stop offset="0.77" style="stop-color:rgb(234,169,152);stop-opacity:1"/><stop offset="1" style="stop-color:rgb(214,148,136);stop-opacity:1"/></radialGradient>
        <radialGradient id="_Radial34" cx="0" cy="0" r="1" gradientUnits="userSpaceOnUse" gradientTransform="matrix(1094.96726,-1976.108645,2110.973928,1025.012313,-726.071315,2224.695562)"><stop offset="0" style="stop-color:rgb(238,203,195);stop-opacity:1"/><stop offset="0.42" style="stop-color:rgb(163,78,74);stop-opacity:1"/><stop offset="0.77" style="stop-color:rgb(234,169,152);stop-opacity:1"/><stop offset="1" style="stop-color:rgb(214,148,136);stop-opacity:1"/></radialGradient>
        <radialGradient id="_Radial35" cx="0" cy="0" r="1" gradientUnits="userSpaceOnUse" gradientTransform="matrix(1094.96726,-1976.108645,2110.973928,1025.012313,-726.071315,2224.695562)"><stop offset="0" style="stop-color:rgb(238,203,195);stop-opacity:1"/><stop offset="0.42" style="stop-color:rgb(163,78,74);stop-opacity:1"/><stop offset="0.77" style="stop-color:rgb(234,169,152);stop-opacity:1"/><stop offset="1" style="stop-color:rgb(214,148,136);stop-opacity:1"/></radialGradient>
        <radialGradient id="_Radial36" cx="0" cy="0" r="1" gradientUnits="userSpaceOnUse" gradientTransform="matrix(1094.96726,-1976.108645,2110.973928,1025.012313,-726.071315,2224.695562)"><stop offset="0" style="stop-color:rgb(238,203,195);stop-opacity:1"/><stop offset="0.42" style="stop-color:rgb(163,78,74);stop-opacity:1"/><stop offset="0.77" style="stop-color:rgb(234,169,152);stop-opacity:1"/><stop offset="1" style="stop-color:rgb(214,148,136);stop-opacity:1"/></radialGradient>
        <radialGradient id="_Radial37" cx="0" cy="0" r="1" gradientUnits="userSpaceOnUse" gradientTransform="matrix(1094.96726,-1976.108645,2110.973928,1025.012313,-726.071315,2224.695562)"><stop offset="0" style="stop-color:rgb(238,203,195);stop-opacity:1"/><stop offset="0.42" style="stop-color:rgb(163,78,74);stop-opacity:1"/><stop offset="0.77" style="stop-color:rgb(234,169,152);stop-opacity:1"/><stop offset="1" style="stop-color:rgb(214,148,136);stop-opacity:1"/></radialGradient>
        <radialGradient id="_Radial38" cx="0" cy="0" r="1" gradientUnits="userSpaceOnUse" gradientTransform="matrix(-2195.240778,-118.496669,-99.760093,2607.542882,1863.127108,-9.036972)"><stop offset="0" style="stop-color:rgb(238,203,195);stop-opacity:1"/><stop offset="0.42" style="stop-color:rgb(163,78,74);stop-opacity:1"/><stop offset="0.77" style="stop-color:rgb(234,169,152);stop-opacity:1"/><stop offset="1" style="stop-color:rgb(214,148,136);stop-opacity:1"/></radialGradient>
        <radialGradient id="_Radial39" cx="0" cy="0" r="1" gradientUnits="userSpaceOnUse" gradientTransform="matrix(2454.971116,-347.870787,347.870787,2454.971116,1364.239901,1964.419136)"><stop offset="0" style="stop-color:rgb(238,203,195);stop-opacity:1"/><stop offset="0.42" style="stop-color:rgb(163,78,74);stop-opacity:1"/><stop offset="0.77" style="stop-color:rgb(234,169,152);stop-opacity:1"/><stop offset="1" style="stop-color:rgb(214,148,136);stop-opacity:1"/></radialGradient>
        <radialGradient id="_Radial40" cx="0" cy="0" r="1" gradientUnits="userSpaceOnUse" gradientTransform="matrix(10359.782473,-1845.96374,1845.96374,10359.782473,-2480.252123,1227.208653)"><stop offset="0" style="stop-color:rgb(238,203,195);stop-opacity:1"/><stop offset="0.42" style="stop-color:rgb(163,78,74);stop-opacity:1"/><stop offset="0.77" style="stop-color:rgb(234,169,152);stop-opacity:1"/><stop offset="1" style="stop-color:rgb(214,148,136);stop-opacity:1"/></radialGradient>
        <radialGradient id="_Radial41" cx="0" cy="0" r="1" gradientUnits="userSpaceOnUse" gradientTransform="matrix(15590.656709,880.217005,-880.217005,15590.656709,-12574.183485,-346.290093)"><stop offset="0" style="stop-color:rgb(238,203,195);stop-opacity:1"/><stop offset="0.42" style="stop-color:rgb(163,78,74);stop-opacity:1"/><stop offset="0.77" style="stop-color:rgb(234,169,152);stop-opacity:1"/><stop offset="1" style="stop-color:rgb(214,148,136);stop-opacity:1"/></radialGradient>
        <radialGradient id="_Radial42" cx="0" cy="0" r="1" gradientUnits="userSpaceOnUse" gradientTransform="matrix(18751.075608,-10091.857474,10091.857474,18751.075608,-1117.169196,-1424.284985)"><stop offset="0" style="stop-color:rgb(238,203,195);stop-opacity:1"/><stop offset="0.42" style="stop-color:rgb(163,78,74);stop-opacity:1"/><stop offset="0.77" style="stop-color:rgb(234,169,152);stop-opacity:1"/><stop offset="1" style="stop-color:rgb(214,148,136);stop-opacity:1"/></radialGradient>
    </defs>
</svg>
